<svg xmlns="http://www.w3.org/2000/svg" viewBox="0 0 252.47 96.24"><defs><style>.cls-1{fill:#601f63;stroke:#f1f2f2;stroke-miterlimit:10;fill-rule:evenodd;}</style></defs><title>Asset 3</title><g id="Layer_2" data-name="Layer 2"><g id="OBJECTS"><path class="cls-1" d="M220.71,87c-44.52,6.29-79.32-8.19-100-26.53-.69.63-1.39,1.24-2.11,1.85C96,81.69,62,95.36,28.57,81.59c.54,4.07,1.29,9.52,1.47,10.07C30.33,92.54,2.71,63.44,1.39,62c0,0,39.67,8.08,40.4,8.08.37,0-3.14,1.8-6.71,3.57,28.53,10.21,57.54-1.91,77.17-18.68.51-.43,1-.87,1.5-1.31l-.37-.42C107.2,46.27,102.91,39,100.69,32.27c-2.4-7.31-2.39-14.17.24-19.71C104.41,5.22,112.08.54,124.36.5c10.41,0,16.75,3.75,19.67,9.9,3.18,6.67,1.69,15.78-3.36,25.39a85,85,0,0,1-13,17.85c18.51,16.19,49.35,28.94,89,24.07-3.51-2.5-7.29-5.25-6.9-5.19C210.52,72.64,251,71,251,71c-1.54,1.24-33.44,25.56-33,24.74.24-.47,1.61-4.92,2.75-8.68Zm-100-40.33.06.07A74.43,74.43,0,0,0,132,31.24c3.64-6.91,4.95-12.94,3.17-16.67-1.27-2.68-4.72-4.33-10.83-4.31-8,0-12.73,2.53-14.59,6.47-1.52,3.21-1.4,7.58.22,12.52C111.79,34.74,115.41,40.78,120.69,46.71Z"/></g></g></svg>